<svg width="16" height="16" viewBox="0 0 16 16" fill="none" xmlns="http://www.w3.org/2000/svg">
<g clip-path="url(#clip0_141_3006)">
<path d="M5.5998 4.39999C5.5998 4.17907 5.77889 3.99999 5.9998 3.99999H6.7998C7.02072 3.99999 7.1998 4.17907 7.1998 4.39999V5.19999C7.1998 5.4209 7.02072 5.59999 6.7998 5.59999H5.9998C5.77889 5.59999 5.5998 5.4209 5.5998 5.19999V4.39999Z" fill="#2A2C31" fill-opacity="0.8"/>
<path d="M9.1998 3.99999C8.97889 3.99999 8.7998 4.17907 8.7998 4.39999V5.19999C8.7998 5.4209 8.97889 5.59999 9.1998 5.59999H9.9998C10.2207 5.59999 10.3998 5.4209 10.3998 5.19999V4.39999C10.3998 4.17907 10.2207 3.99999 9.9998 3.99999H9.1998Z" fill="#2A2C31" fill-opacity="0.8"/>
<path d="M5.5998 7.59999C5.5998 7.37907 5.77889 7.19999 5.9998 7.19999H6.7998C7.02072 7.19999 7.1998 7.37907 7.1998 7.59999V8.39999C7.1998 8.6209 7.02072 8.79999 6.7998 8.79999L5.9998 8.79999C5.77889 8.79999 5.5998 8.6209 5.5998 8.39999V7.59999Z" fill="#2A2C31" fill-opacity="0.8"/>
<path d="M9.1998 7.19999C8.97889 7.19999 8.7998 7.37907 8.7998 7.59999V8.39999C8.7998 8.6209 8.97889 8.79999 9.1998 8.79999H9.9998C10.2207 8.79999 10.3998 8.6209 10.3998 8.39999V7.59999C10.3998 7.37907 10.2207 7.19999 9.9998 7.19999H9.1998Z" fill="#2A2C31" fill-opacity="0.8"/>
<path d="M5.5998 10.8C5.5998 10.5791 5.77889 10.4 5.9998 10.4L6.7998 10.4C7.02072 10.4 7.1998 10.5791 7.1998 10.8V11.6C7.1998 11.8209 7.02072 12 6.7998 12L5.9998 12C5.77889 12 5.5998 11.8209 5.5998 11.6V10.8Z" fill="#2A2C31" fill-opacity="0.8"/>
<path d="M9.1998 10.4C8.97889 10.4 8.7998 10.5791 8.7998 10.8V11.6C8.7998 11.8209 8.97889 12 9.1998 12H9.9998C10.2207 12 10.3998 11.8209 10.3998 11.6V10.8C10.3998 10.5791 10.2207 10.4 9.9998 10.4H9.1998Z" fill="#2A2C31" fill-opacity="0.8"/>
<path fill-rule="evenodd" clip-rule="evenodd" d="M2.3998 14.4L2.3998 2.39999C2.3998 1.51633 3.11615 0.799988 3.9998 0.799988L11.9998 0.799988C12.8835 0.799988 13.5998 1.51633 13.5998 2.39999L13.5998 14.4H14.3998C14.8416 14.4 15.1998 14.7582 15.1998 15.2C15.1998 15.6418 14.8416 16 14.3998 16L1.5998 16C1.15798 16 0.799805 15.6418 0.799805 15.2C0.799805 14.7582 1.15798 14.4 1.5998 14.4H2.3998ZM3.9998 2.39999L11.9998 2.39999L11.9998 14.4L3.9998 14.4L3.9998 2.39999Z" fill="#2A2C31" fill-opacity="0.8"/>
</g>
<defs>
<clipPath id="clip0_141_3006">
<rect width="16" height="16" fill="white"/>
</clipPath>
</defs>
</svg>
