<svg width="16" height="16" viewBox="0 0 16 16" fill="none" xmlns="http://www.w3.org/2000/svg">
<path fill-rule="evenodd" clip-rule="evenodd" d="M6.4001 1.59999C6.4001 1.15816 6.04193 0.799988 5.6001 0.799988C5.15827 0.799988 4.8001 1.15816 4.8001 1.59999V2.39999H4.0001C2.67461 2.39999 1.6001 3.4745 1.6001 4.79999L1.6001 12.8C1.6001 14.1255 2.67461 15.2 4.0001 15.2L12.0001 15.2C13.3256 15.2 14.4001 14.1255 14.4001 12.8L14.4001 4.79999C14.4001 3.4745 13.3256 2.39999 12.0001 2.39999H11.2001V1.59999C11.2001 1.15816 10.8419 0.799988 10.4001 0.799988C9.95827 0.799988 9.6001 1.15816 9.6001 1.59999V2.39999L6.4001 2.39999V1.59999ZM4.8001 3.99999V4.79999C4.8001 5.24182 5.15827 5.59999 5.6001 5.59999C6.04193 5.59999 6.4001 5.24182 6.4001 4.79999V3.99999L9.6001 3.99999V4.79999C9.6001 5.24182 9.95827 5.59999 10.4001 5.59999C10.8419 5.59999 11.2001 5.24182 11.2001 4.79999V3.99999L12.0001 3.99999C12.4419 3.99999 12.8001 4.35816 12.8001 4.79999L12.8001 6.39999L3.2001 6.39999V4.79999C3.2001 4.35816 3.55827 3.99999 4.0001 3.99999H4.8001ZM3.2001 7.99999L3.2001 12.8C3.2001 13.2418 3.55827 13.6 4.0001 13.6L12.0001 13.6C12.4419 13.6 12.8001 13.2418 12.8001 12.8V7.99999L3.2001 7.99999Z" fill="#2A2C31" fill-opacity="0.8"/>
</svg>
