<svg width="40" height="40" viewBox="0 0 40 40" fill="none" xmlns="http://www.w3.org/2000/svg">
<path d="M16 21C16.5523 21 17 20.5523 17 20C17 19.4477 16.5523 19 16 19C15.4477 19 15 19.4477 15 20C15 20.5523 15.4477 21 16 21Z" fill="#2A2C31"/>
<path d="M21 20C21 20.5523 20.5523 21 20 21C19.4477 21 19 20.5523 19 20C19 19.4477 19.4477 19 20 19C20.5523 19 21 19.4477 21 20Z" fill="#2A2C31"/>
<path d="M24 21C24.5523 21 25 20.5523 25 20C25 19.4477 24.5523 19 24 19C23.4477 19 23 19.4477 23 20C23 20.5523 23.4477 21 24 21Z" fill="#2A2C31"/>
<path fill-rule="evenodd" clip-rule="evenodd" d="M11 20C11 15.0294 15.0294 11 20 11C24.9706 11 29 15.0294 29 20C29 24.9706 24.9706 29 20 29H12.6667C11.7462 29 11 28.2538 11 27.3333V20ZM20 27H13V20C13 16.134 16.134 13 20 13C23.866 13 27 16.134 27 20C27 23.866 23.866 27 20 27Z" fill="#2A2C31"/>
</svg>
