<svg width="40" height="40" viewBox="0 0 40 40" fill="none" xmlns="http://www.w3.org/2000/svg">
<rect width="40" height="40" rx="20" fill="#EEF4F8"/>
<path d="M17 20C17 19.4477 17.4477 19 18 19H22C22.5523 19 23 19.4477 23 20C23 20.5523 22.5523 21 22 21H18C17.4477 21 17 20.5523 17 20Z" fill="#006196"/>
<path d="M18 23C17.4477 23 17 23.4477 17 24C17 24.5523 17.4477 25 18 25H22C22.5523 25 23 24.5523 23 24C23 23.4477 22.5523 23 22 23H18Z" fill="#006196"/>
<path fill-rule="evenodd" clip-rule="evenodd" d="M13 14C13 12.3431 14.3431 11 16 11H20.7574C21.553 11 22.3161 11.3161 22.8787 11.8787L26.1213 15.1213C26.6839 15.6839 27 16.447 27 17.2426V26C27 27.6569 25.6569 29 24 29H16C14.3431 29 13 27.6569 13 26V14ZM25 26C25 26.5523 24.5523 27 24 27H16C15.4477 27 15 26.5523 15 26V14C15 13.4477 15.4477 13 16 13H20V16C20 17.1046 20.8954 18 22 18H25V26ZM24.1716 16L22 13.8284V16H24.1716Z" fill="#006196"/>
</svg>
