<svg width="40" height="40" viewBox="0 0 40 40" fill="none" xmlns="http://www.w3.org/2000/svg">
<rect width="40" height="40" rx="20" fill="#EEF4F8"/>
<path d="M20 11C20.5523 11 21 11.4477 21 12V20.5858L23.2929 18.2929C23.6834 17.9024 24.3166 17.9024 24.7071 18.2929C25.0976 18.6834 25.0976 19.3166 24.7071 19.7071L20 24.4142L15.2929 19.7071C14.9024 19.3166 14.9024 18.6834 15.2929 18.2929C15.6834 17.9024 16.3166 17.9024 16.7071 18.2929L19 20.5858V12C19 11.4477 19.4477 11 20 11Z" fill="#2A2C31" fill-opacity="0.6"/>
<path d="M13 24C13 23.4477 12.5523 23 12 23C11.4477 23 11 23.4477 11 24V26C11 27.6569 12.3431 29 14 29H26C27.6569 29 29 27.6569 29 26V24C29 23.4477 28.5523 23 28 23C27.4477 23 27 23.4477 27 24V26C27 26.5523 26.5523 27 26 27H14C13.4477 27 13 26.5523 13 26V24Z" fill="#2A2C31" fill-opacity="0.6"/>
</svg>
