<svg width="20" height="20" viewBox="0 0 20 20" fill="none" xmlns="http://www.w3.org/2000/svg">
<path d="M10 1C10.5523 1 11 1.44772 11 2V10.5858L13.2929 8.29289C13.6834 7.90237 14.3166 7.90237 14.7071 8.29289C15.0976 8.68342 15.0976 9.31658 14.7071 9.70711L10 14.4142L5.29289 9.70711C4.90237 9.31658 4.90237 8.68342 5.29289 8.29289C5.68342 7.90237 6.31658 7.90237 6.70711 8.29289L9 10.5858V2C9 1.44772 9.44772 1 10 1Z" fill="#006196"/>
<path d="M3 14C3 13.4477 2.55228 13 2 13C1.44772 13 1 13.4477 1 14V16C1 17.6569 2.34315 19 4 19H16C17.6569 19 19 17.6569 19 16V14C19 13.4477 18.5523 13 18 13C17.4477 13 17 13.4477 17 14V16C17 16.5523 16.5523 17 16 17H4C3.44772 17 3 16.5523 3 16V14Z" fill="#006196"/>
</svg>
