<svg width="40" height="40" viewBox="0 0 40 40" fill="none" xmlns="http://www.w3.org/2000/svg">
<path d="M10.8192 25V14.0909H14.9101C15.7481 14.0909 16.4513 14.2365 17.0194 14.5277C17.5912 14.8189 18.0226 15.2273 18.3138 15.7528C18.6086 16.2749 18.7559 16.8839 18.7559 17.5799C18.7559 18.2795 18.6068 18.8867 18.3085 19.4016C18.0138 19.913 17.5787 20.3089 17.0035 20.5895C16.4282 20.8665 15.7215 21.005 14.8834 21.005H11.9697V19.3643H14.6171C15.1072 19.3643 15.5084 19.2969 15.8209 19.1619C16.1334 19.0234 16.3643 18.8228 16.5134 18.56C16.6661 18.2937 16.7425 17.967 16.7425 17.5799C16.7425 17.1928 16.6661 16.8626 16.5134 16.5891C16.3607 16.3121 16.1281 16.1026 15.8156 15.9606C15.5031 15.815 15.1001 15.7422 14.6064 15.7422H12.7954V25H10.8192ZM16.4548 20.0568L19.1555 25H16.9502L14.2975 20.0568H16.4548ZM27.4518 14.0909H29.428V21.218C29.428 21.9993 29.2433 22.6864 28.874 23.2795C28.5083 23.8725 27.9933 24.3359 27.3293 24.6697C26.6652 25 25.8893 25.1651 25.0015 25.1651C24.1102 25.1651 23.3325 25 22.6684 24.6697C22.0044 24.3359 21.4894 23.8725 21.1237 23.2795C20.7579 22.6864 20.575 21.9993 20.575 21.218V14.0909H22.5512V21.0529C22.5512 21.5075 22.6507 21.9123 22.8495 22.2674C23.0519 22.6225 23.336 22.9013 23.7018 23.1037C24.0676 23.3026 24.5008 23.402 25.0015 23.402C25.5022 23.402 25.9355 23.3026 26.3012 23.1037C26.6705 22.9013 26.9546 22.6225 27.1535 22.2674C27.3524 21.9123 27.4518 21.5075 27.4518 21.0529V14.0909Z" fill="#2A2C31"/>
</svg>
