<svg width="20" height="20" viewBox="0 0 20 20" fill="none" xmlns="http://www.w3.org/2000/svg">
<path d="M11.9649 2.01443L13.6108 1.06423L15.2567 2.01443V3.91499L12.433 5.54508V6.60939L16.1781 4.44693V1.48231L13.6108 0L11.0432 1.48231V6.34455L10.5536 6.62723L11.9539 7.43571C11.9539 5.6289 11.9649 3.8236 11.9649 2.01443ZM9.15453 7.41458L11.9832 9.04804C11.0478 9.59799 10.0961 10.1368 9.15453 10.6801C9.15453 9.62046 9.15453 8.49656 9.15453 7.41458ZM8.22116 9.04552C8.22116 11.391 8.22318 13.73 8.22478 16.0778L6.58089 17.0255L4.93456 16.0751L4.93338 14.1775L7.7626 12.5466V11.4828L4.01138 13.6454L4.01331 16.6074L6.58047 18.0894L9.14687 16.6101L9.14367 11.7414L9.15453 11.7351V11.735C11.7976 10.2116 14.4626 8.68314 17.1113 7.15143L18.7539 8.10129V10.0021L17.1113 10.952L14.2761 9.31262L13.3548 9.84456L17.1113 12.0165L19.6755 10.5338V7.56968L17.1113 6.08687L12.9076 8.51752L12.9044 8.51567C10.249 6.98035 7.59109 5.44821 4.93338 3.91616L4.93481 2.01863L6.58089 1.06835L8.22486 2.01594L8.22268 5.28158L9.14392 5.81353L9.14687 1.48366L6.58039 0.00420776L4.01357 1.48635L4.01155 4.44844L8.22646 6.87835L8.22621 7.9674C6.50709 8.96026 4.78788 9.95338 3.06749 10.9465L1.42158 9.99638V8.0959L3.06749 7.14571L5.89738 8.77958L6.81905 8.24747L3.06749 6.08139L0.5 7.56396V10.5285L3.06749 12.0108C4.78325 11.0202 6.50078 10.039 8.21207 9.0509L8.22116 9.04552ZM9.62992 19.7066L10.0678 20L10.5516 19.712V11.463L9.62992 11.9951V19.7066ZM15.2567 14.1788V16.0793L13.6108 17.0294L11.9649 16.0793V12.8089L11.0432 12.2767V16.6114L13.6108 18.0937L16.1783 16.6114V13.6468L11.9649 11.2141V10.6471L10.5535 11.4619C12.1202 12.3666 13.6886 13.2735 15.2567 14.1788Z" fill="#1379F0"/>
</svg>
