<svg width="36" height="36" viewBox="0 0 36 36" fill="none" xmlns="http://www.w3.org/2000/svg">
<g clip-path="url(#clip0_182_2196)">
<path fill-rule="evenodd" clip-rule="evenodd" d="M0.327777 18.7104C0.290357 18.6784 0.255477 18.6436 0.223492 18.6061L0.222958 18.6056C0.0838819 18.4425 0 18.2311 0 18C0 17.7689 0.0840156 17.5575 0.222958 17.3945L0.22367 17.3936C0.255566 17.3563 0.290357 17.3216 0.327509 17.2897L5.00155 12.6158V6.00693C4.99964 5.98239 4.99853 5.95753 4.99853 5.93245C4.99853 5.90741 4.99964 5.8826 5.00155 5.85801V5.85757C5.01946 5.63198 5.11769 5.42889 5.26741 5.27699L11.4808 11.4856C9.81436 13.1533 8.78368 15.4564 8.78368 18C8.78368 23.0897 12.9104 27.2164 18 27.2164C21.2462 27.2164 24.1002 25.5375 25.7421 23.0009L30.9985 26.3963V29.6819L30.7786 29.4619C30.7463 29.4241 30.7112 29.389 30.6733 29.3567L27.9802 26.6637L18.7108 17.3942C18.5396 17.1934 18.2846 17.066 18 17.066C17.4843 17.066 17.0661 17.4842 17.0661 18C17.0661 18.2842 17.1931 18.5387 17.3934 18.71L26.6636 27.9803L29.3575 30.6741C29.3893 30.7113 29.4239 30.7459 29.461 30.7777L29.6818 30.9984H23.3843L18.7107 35.672C18.6786 35.7096 18.6437 35.7445 18.606 35.7766L18.6057 35.777C18.4427 35.916 18.2311 36 18 36C17.7691 36 17.5577 35.916 17.3947 35.7772L17.3941 35.7766C17.3565 35.7445 17.3215 35.7096 17.2894 35.672L12.6159 30.9984H6.00702C5.98243 31.0004 5.95762 31.0014 5.9325 31.0014C5.90746 31.0014 5.88265 31.0004 5.85806 30.9984H5.85761C5.40154 30.9622 5.03782 30.5984 5.0016 30.1424V30.1419C4.99968 30.1173 4.99857 30.0926 4.99857 30.0675C4.99857 30.0424 4.99968 30.0176 5.0016 29.993V23.3841L0.327777 18.7104ZM6.23123 5.0007L12.6149 4.99687L13.2063 4.40542L14.9345 9.30657C13.7696 9.71743 12.7118 10.3553 11.8147 11.168L6.23123 5.0007ZM14.0322 3.57957L16.6711 0.940562L17.2843 8.81112C16.6902 8.85696 16.1118 8.95924 15.5546 9.11234L14.0322 3.57957ZM18 -2.86102e-06C18.2449 -2.86102e-06 18.4678 0.094303 18.6344 0.248525L18.6359 0.250039C18.6527 0.265586 18.6688 0.281757 18.6844 0.298462L20.6145 2.22984L19.5075 8.90707C19.0169 8.82626 18.5135 8.78359 18 8.78359L18 -2.86102e-06ZM21.546 3.16207L23.3843 5.00155H23.3951L21.5338 9.48609C21.0867 9.30029 20.622 9.14874 20.1426 9.03465L21.546 3.16207ZM24.8722 5.00155H26.8134L23.1725 10.3715C22.8949 10.1829 22.6063 10.0092 22.3081 9.85138L24.8722 5.00155ZM28.8263 5.00155H29.9931C30.0176 4.99964 30.0425 4.99857 30.0676 4.99857C30.0926 4.99857 30.1174 4.99964 30.142 5.00155H30.1424C30.4481 5.02587 30.7124 5.19729 30.8643 5.44506L24.5952 11.5635C24.374 11.3369 24.1414 11.1215 23.8981 10.9186L28.8263 5.00155ZM30.9985 7.6888V9.65114L25.7551 13.0189C25.5892 12.7609 25.4105 12.512 25.2202 12.2725L30.9985 7.6888ZM30.9985 11.5193V12.6158L31.2627 12.8801L26.5996 14.6802C26.4951 14.4095 26.3779 14.145 26.2492 13.8872L30.9985 11.5193ZM32.588 14.2053L33.7436 15.3609L27.0902 16.4763C27.0453 16.2066 26.9892 15.9407 26.9215 15.6794L32.588 14.2053ZM35.5403 17.1577L35.6722 17.2896C35.7097 17.3216 35.7446 17.3565 35.7765 17.3939L35.7771 17.3944C35.9162 17.5575 36 17.769 36 18C36 18.2311 35.916 18.4425 35.7771 18.6056L35.7767 18.606C35.7688 18.6153 35.7606 18.6246 35.7522 18.6336L27.2099 18.3287C27.2138 18.2196 27.2164 18.1101 27.2164 18C27.2164 17.8517 27.2125 17.7045 27.2056 17.558L35.5403 17.1577ZM33.8442 20.5384L32.8042 21.5785L26.9597 20.1657C27.0157 19.9331 27.063 19.697 27.1011 19.458L33.8442 20.5384ZM31.3001 23.0826L30.9984 23.3842V24.0893L26.3471 21.9103C26.4423 21.7076 26.5302 21.5009 26.6107 21.2905L31.3001 23.0826Z" fill="#003B5C"/>
</g>
<defs>
<clipPath id="clip0_182_2196">
<rect width="36" height="36" fill="white"/>
</clipPath>
</defs>
</svg>
