<svg width="40" height="40" viewBox="0 0 40 40" fill="none" xmlns="http://www.w3.org/2000/svg">
<path fill-rule="evenodd" clip-rule="evenodd" d="M20 11C16.6863 11 14 13.6863 14 17V20.2676C13.4022 20.6134 13 21.2597 13 22V23C13 24.1046 13.8954 25 15 25H25C26.1046 25 27 24.1046 27 23V22C27 21.2597 26.5978 20.6134 26 20.2676V17C26 13.6863 23.3137 11 20 11ZM15.0015 21.9988L16 21.4211V17C16 14.7909 17.7909 13 20 13C22.2091 13 24 14.7909 24 17V21.4211L24.9985 21.9988C24.9985 21.9987 24.9991 21.9991 25 22L25 23H15V22C15.0009 21.9991 15.0015 21.9987 15.0015 21.9988Z" fill="#2A2C31"/>
<path d="M18.4472 26.1056C17.9532 25.8586 17.3526 26.0588 17.1056 26.5528C16.8586 27.0468 17.0588 27.6474 17.5528 27.8944L17.7639 28C19.1716 28.7038 20.8284 28.7038 22.2361 28L22.4472 27.8944C22.9412 27.6474 23.1414 27.0468 22.8944 26.5528C22.6474 26.0588 22.0468 25.8586 21.5528 26.1056L21.3416 26.2111C20.4971 26.6334 19.5029 26.6334 18.6584 26.2111L18.4472 26.1056Z" fill="#2A2C31"/>
</svg>
