<svg width="17" height="17" viewBox="0 0 17 17" fill="none" xmlns="http://www.w3.org/2000/svg">
<path d="M8.5 16.5C12.9183 16.5 16.5 12.9183 16.5 8.5C16.5 4.08172 12.9183 0.5 8.5 0.5C4.08172 0.5 0.5 4.08172 0.5 8.5C0.5 12.9183 4.08172 16.5 8.5 16.5Z" stroke="#949A9E" stroke-linecap="round"/>
<path fill-rule="evenodd" clip-rule="evenodd" d="M13.0657 5.5343C13.3781 5.84672 13.3781 6.35325 13.0657 6.66567L7.7 12.0314L4.73431 9.06567C4.4219 8.75325 4.4219 8.24672 4.73431 7.9343C5.04673 7.62188 5.55327 7.62188 5.86569 7.9343L7.7 9.76862L11.9343 5.5343C12.2467 5.22188 12.7533 5.22188 13.0657 5.5343Z" fill="#949A9E"/>
</svg>
