<svg width="16" height="16" viewBox="0 0 16 16" fill="none" xmlns="http://www.w3.org/2000/svg">
<g clip-path="url(#clip0_318_383)">
<path d="M8 16C12.4183 16 16 12.4183 16 8C16 3.58172 12.4183 0 8 0C3.58172 0 0 3.58172 0 8C0 12.4183 3.58172 16 8 16Z" fill="#CF1322"/>
<path d="M11.3656 5.76571C11.678 5.45329 11.678 4.94676 11.3656 4.63434C11.0532 4.32192 10.5466 4.32192 10.2342 4.63434L7.9999 6.86865L5.76559 4.63434C5.45317 4.32192 4.94664 4.32192 4.63422 4.63434C4.3218 4.94676 4.3218 5.45329 4.63422 5.76571L6.86853 8.00002L4.63422 10.2343C4.3218 10.5468 4.3218 11.0533 4.63422 11.3657C4.94664 11.6781 5.45317 11.6781 5.76559 11.3657L7.9999 9.13139L10.2342 11.3657C10.5466 11.6781 11.0532 11.6781 11.3656 11.3657C11.678 11.0533 11.678 10.5468 11.3656 10.2343L9.13127 8.00002L11.3656 5.76571Z" fill="white"/>
</g>
<defs>
<clipPath id="clip0_318_383">
<rect width="16" height="16" fill="white"/>
</clipPath>
</defs>
</svg>
