<svg width="16" height="16" viewBox="0 0 16 16" fill="none" xmlns="http://www.w3.org/2000/svg">
<path d="M8 16C12.4183 16 16 12.4183 16 8C16 3.58172 12.4183 0 8 0C3.58172 0 0 3.58172 0 8C0 12.4183 3.58172 16 8 16Z" fill="#1379F0"/>
<path fill-rule="evenodd" clip-rule="evenodd" d="M12.5657 5.0343C12.8781 5.34672 12.8781 5.85325 12.5657 6.16567L7.2 11.5314L4.23431 8.56567C3.9219 8.25325 3.9219 7.74672 4.23431 7.4343C4.54673 7.12188 5.05327 7.12188 5.36569 7.4343L7.2 9.26862L11.4343 5.0343C11.7467 4.72188 12.2533 4.72188 12.5657 5.0343Z" fill="white"/>
</svg>
